PathFileType	4	(X/Y/Z)	/home/alexbeat/data/kuopio-gait-dataset/01/mocap/calib_static_markers.trc
DataRate	CameraRate	NumFrames	NumMarkers	Units	OrigDataRate	OrigDataStartFrame	OrigNumFrames
100.000000	100.000000	4	70	mm	100.000000	52	211
Frame#	Time	Pelvis1			Pelvis2			Pelvis3			Pelvis4			Torso1			Torso2			Torso3			Torso4			RFemur1			RFemur2			RFemur3			RFemur4			LFemur1			LFemur2			LFemur3			LFemur4			RTibia1			RTibia2			RTibia3			RTibia4			LTibia1			LTibia2			LTibia3			LTibia4			LFoot1			LFoot2			LFoot3			RFoot1			RFoot2			RFoot3			*30			*31			*32			*33			*34			*35			*36			*37			*38			Pelvis_RFemur_score			Pelvis_LFemur_score			RFemur_RTibia_score			RFemur_RTibia_sara			LFemur_LTibia_score			LFemur_LTibia_sara			RKnee			LKnee			RTibia_RFoot_score			LTibia_LFoot_score			USERMO0			USERMO1			USERMO2			USERMO3			USERMO4			USERMO5			USERMO6			USERMO7			USERMO8			USERMO9			USERMO10			USERMO11			USERMO12			USERMO13			USERMO14			USERMO15			USERMO16			USERMO17			USERMO18			USERMO19			USERMO20			
		X1	Y1	Z1	X2	Y2	Z2	X3	Y3	Z3	X4	Y4	Z4	X5	Y5	Z5	X6	Y6	Z6	X7	Y7	Z7	X8	Y8	Z8	X9	Y9	Z9	X10	Y10	Z10	X11	Y11	Z11	X12	Y12	Z12	X13	Y13	Z13	X14	Y14	Z14	X15	Y15	Z15	X16	Y16	Z16	X17	Y17	Z17	X18	Y18	Z18	X19	Y19	Z19	X20	Y20	Z20	X21	Y21	Z21	X22	Y22	Z22	X23	Y23	Z23	X24	Y24	Z24	X25	Y25	Z25	X26	Y26	Z26	X27	Y27	Z27	X28	Y28	Z28	X29	Y29	Z29	X30	Y30	Z30	X31	Y31	Z31	X32	Y32	Z32	X33	Y33	Z33	X34	Y34	Z34	X35	Y35	Z35	X36	Y36	Z36	X37	Y37	Z37	X38	Y38	Z38	X39	Y39	Z39	X40	Y40	Z40	X41	Y41	Z41	X42	Y42	Z42	X43	Y43	Z43	X44	Y44	Z44	X45	Y45	Z45	X46	Y46	Z46	X47	Y47	Z47	X48	Y48	Z48	X49	Y49	Z49	X50	Y50	Z50	X51	Y51	Z51	X52	Y52	Z52	X53	Y53	Z53	X54	Y54	Z54	X55	Y55	Z55	X56	Y56	Z56	X57	Y57	Z57	X58	Y58	Z58	X59	Y59	Z59	X60	Y60	Z60	X61	Y61	Z61	X62	Y62	Z62	X63	Y63	Z63	X64	Y64	Z64	X65	Y65	Z65	X66	Y66	Z66	X67	Y67	Z67	X68	Y68	Z68	X69	Y69	Z69	X70	Y70	Z70	

53	0.52	306.5682983398438	1027.430786132812	344.0547180175782	225.8899078369141	1030.220703125	346.7246398925782	227.8031768798828	916.1024169921875	314.9015197753907	297.6097717285156	916.84228515625	313.4678955078126	262.2704162597656	1421.978881835938	500.5631408691407	91.36058044433594	1439.95263671875	446.316864013672	435.7553405761719	1464.7265625	439.7829895019532	253.8086853027344	1491.165161132812	368.3373107910157	91.12919616699219	647.382568359375	397.8554382324219	101.4054336547852	545.154052734375	393.9715576171876	89.76080322265625	592.3832397460938	422.3005371093751	85.13212585449219	591.5614013671875	459.4994201660157	434.380859375	668.8508911132812	421.3298645019532	433.6096496582031	632.3041381835938	482.5910034179689	423.3958129882812	563.1781616210938	422.1433105468751	434.5365295410156	634.1685180664062	440.6211242675782	93.07707214355469	363.6155395507812	377.1296691894531	97.14093780517578	419.1795654296875	396.2457275390625	91.66745758056641	317.6542358398438	391.8888549804688	109.6012649536133	366.4833374023438	338.7200927734375	426.4273986816406	372.5252990722656	363.216064453125	432.1291809082031	350.4126586914062	404.8712463378906	424.0276489257812	285.2710571289062	412.6020812988281	424.7376708984375	394.6585998535156	429.8365478515625	335.287841796875	28.13594627380369	320.4113159179688	377.7721557617188	23.28206443786618	555.2955932617188	421.9531555175781	23.17986297607419	505.9233703613281	179.6100006103516	26.46237754821775	331.457275390625	118.2095260620117	22.28283882141109	561.9850463867188	76.26023864746094	21.02493476867673	505.9566040039062	1498.118286132812	614.9726562500001	-1841.735717773438	1584.31298828125	704.5462036132814	-1909.35400390625	nan	nan	nan	1628.111938476562	658.3278808593751	-1821.20556640625	nan	nan	nan	nan	nan	nan	nan	nan	nan	nan	nan	nan	nan	nan	nan	139.9944763183594	904.0001831054688	452.7725219726562	375.658447265625	892.2459106445312	456.8960876464844	145.3717803955078	461.2199096679688	417.1073608398438	244.1216888427734	466.8277893066406	431.8385925292969	364.3003845214844	458.484619140625	432.6328125	264.4213256835938	461.3853454589844	436.6026306152344	145.3719940185547	461.2200012207031	417.1069946289062	364.2999877929688	458.4849853515625	432.6329956054688	222.1464691162109	8.523084640502908	357.5084533691406	373.1917724609375	18.59202384948728	337.4746398925781	-0.8912051320075989	-0.7359246015548705	-1.482497215270996	0.4305469393730164	0.6214454770088196	0.4420314729213716	0.1000000014901161	0.1000000014901161	-0.1000000014901161	-0.000589404720813036	-1.385842680931091	-0.02930197492241867	0.3783377110958099	0.02486595883965489	0.4605434536933899	0.1000000014901161	0.1000000014901161	-0.1000000014901161	-1.074671149253845	-0.6344895362854003	-1.399050116539001	0.4275576174259186	0.3360575735569	0.3935566246509552	0.1000000014901161	0.1000000014901161	-0.1000000014901161	-0.07630155235528946	-1.90037727355957	-2.506247997283936	0.2533922791481018	0.9913585186004639	0.3352062702178956	0.1000000014901161	0.1000000014901161	-0.1000000014901161	2.463037729263306	-2.237673759460449	0.2037057876586913	0.09418227523565292	0.5949565768241882	0.4047414660453796	0.1000000014901161	0.1000000014901161	-0.1000000014901161	-1.88241720199585	-0.02837882004678234	-2.469509363174438	0.1246932595968246	0.02325671911239621	0.4664663374423981	0.1000000014901161	0.1000000014901161	-0.1000000014901161	2.464279413223267	2.31983470916748	0.3362321555614473	0.09398991614580154	0.3668135404586792	0.3883714079856873	0.1000000014901161	0.1000000014901161	-0.1000000014901161	
54	0.53	306.5590209960938	1027.441162109375	344.0993347167969	225.8986206054688	1030.23291015625	346.7402648925782	227.7828521728516	916.1134033203125	314.9255981445312	297.5320434570312	916.8309326171875	313.5566711425782	262.35693359375	1422.129760742188	500.8636474609376	91.35663604736328	1439.96142578125	446.3522949218751	435.751220703125	1464.743286132812	439.8276977539063	253.7966766357422	1491.162231445312	368.3638916015626	91.10820770263672	647.3726806640625	397.8645019531251	101.3850250244141	545.1657104492188	393.9834289550782	89.73630523681641	592.359619140625	422.3326721191407	85.11259460449219	591.5426025390625	459.5093078613282	434.3538513183594	668.8530883789062	421.3717956542969	433.6231384277344	632.3167114257812	482.6166992187501	423.3975524902344	563.19775390625	422.1825561523439	434.5028076171875	634.1663818359375	440.6243896484376	93.08786773681641	363.5602111816406	377.1123657226562	97.10403442382812	419.181884765625	396.2757263183594	91.59056854248047	317.6353149414062	391.9353942871094	109.5687484741211	366.4813537597656	338.7445068359375	426.4239196777344	372.5227355957031	363.2318420410156	432.1185913085938	350.4405822753906	404.8917846679688	424.0114135742188	285.2904968261719	412.622802734375	424.7257385253906	394.6838073730469	429.8462829589844	335.2684020996094	28.14562225341795	320.4108581542969	377.7599487304688	23.28278160095211	555.3004150390625	421.9239501953125	23.19314575195309	505.9495849609375	179.5994720458984	26.47626304626463	331.4647521972656	118.1960678100586	22.26610755920407	561.9691772460938	76.24256134033203	21.01206588745114	505.9666748046875	1498.137329101562	615.0389404296876	-1841.720825195312	1584.355834960938	704.5356445312501	-1909.36181640625	1627.125366210938	662.8498535156251	-1802.579956054688	1628.10107421875	658.3555297851564	-1821.23095703125	nan	nan	nan	nan	nan	nan	nan	nan	nan	nan	nan	nan	nan	nan	nan	139.9172821044922	904.0407104492188	452.7939758300782	375.5564880371094	892.2354125976562	456.9864501953126	145.3530426025391	461.2008056640625	417.1266784667969	244.1007232666016	466.7972412109375	431.8771972656251	364.3109436035156	458.4926452636719	432.657470703125	264.4323120117188	461.3824157714844	436.6461486816406	145.3529968261719	461.2009887695312	417.1270141601562	364.3110046386719	458.4930114746094	432.6570129394531	222.0775604248047	8.502306938171365	357.5511169433594	373.1754150390625	18.60329246520994	337.513916015625	-0.8914394378662109	-0.7356228828430175	-1.481945633888245	0.4305366575717926	0.6214532256126404	0.4420595169067383	0.1000000014901161	0.1000000014901161	-0.1000000014901161	-0.0003882540040649474	-1.385871648788452	-0.02918447181582459	0.3783174753189087	0.02487385086715218	0.4605536460876465	0.1000000014901161	0.1000000014901161	-0.1000000014901161	-1.074734926223755	-0.6347206830978392	-1.399162769317627	0.4275477230548859	0.3360733687877655	0.3935760855674744	0.1000000014901161	0.1000000014901161	-0.1000000014901161	-0.0761013999581337	-1.901081800460815	-2.506551504135132	0.2533731460571289	0.9913702607154846	0.3352391421794891	0.1000000014901161	0.1000000014901161	-0.1000000014901161	2.463139533996582	-2.237679004669189	0.2035981267690658	0.09416088461875916	0.5949477553367615	0.4047573208808899	0.1000000014901161	0.1000000014901161	-0.1000000014901161	-1.882321357727051	-0.02828493341803536	-2.469437122344971	0.124679371714592	0.02325147949159142	0.466466873884201	0.1000000014901161	0.1000000014901161	-0.1000000014901161	2.464268207550049	2.319301843643188	0.3366762697696687	0.0939512774348259	0.3667967915534973	0.388390839099884	0.1000000014901161	0.1000000014901161	-0.1000000014901161	
55	0.54	306.5293884277344	1027.452758789062	344.1046752929689	225.8664398193359	1030.248901367188	346.7977294921876	227.7780914306641	916.1286010742188	314.9613647460939	297.5942993164062	916.9453735351562	313.3758544921876	262.2841796875	1421.943969726562	500.6006774902345	91.34505462646484	1439.97412109375	446.3987426757813	435.7357788085938	1464.729858398438	439.860076904297	253.79248046875	1491.167114257812	368.3921203613282	91.08444976806641	647.3889770507812	397.8795471191407	101.3663940429688	545.175537109375	394.0148010253907	89.74691009521484	592.3778076171875	422.3740844726562	85.13232421875	591.536376953125	459.5260925292969	434.345947265625	668.8746948242188	421.3785095214844	433.6156921386719	632.3430786132812	482.6445312500001	423.3775939941406	563.2171630859375	422.2002563476562	434.52197265625	634.196533203125	440.6571044921876	93.06757354736328	363.5615844726562	377.1163330078125	97.10197448730469	419.1807556152344	396.286865234375	91.57025909423828	317.6630859375	391.9460754394531	109.5659255981445	366.482177734375	338.7460632324219	426.4228515625	372.5418395996094	363.2348022460938	432.1327209472656	350.4600524902344	404.8891906738281	424.0106506347656	285.308349609375	412.6202697753906	424.7069702148438	394.7062377929688	429.8656616210938	335.2615966796875	28.15688133239744	320.4261169433594	377.76025390625	23.28875541687009	555.2978515625	421.9280395507812	23.19781684875485	505.9569702148438	179.6056823730469	26.48842811584471	331.481689453125	118.2012710571289	22.28110885620113	561.9788208007812	76.23471069335938	21.00504684448239	505.9769592285156	1498.171142578125	615.0875854492189	-1841.720947265625	1584.334716796875	704.5333251953126	-1909.340942382812	nan	nan	nan	1628.109985351562	658.3125000000001	-1821.219604492188	-339.0601501464844	1654.525512695312	913.0484008789064	nan	nan	nan	nan	nan	nan	nan	nan	nan	nan	nan	nan	140.0376892089844	903.9534301757812	452.8379516601562	375.7098083496094	892.2559204101562	456.8480224609376	145.3597106933594	461.2073364257812	417.1324157714844	244.1111755371094	466.7990112304688	431.8591918945312	364.2853393554688	458.5137329101562	432.6762390136719	264.4064636230469	461.4045715332031	436.6575927734375	145.3600006103516	461.2070007324219	417.1319885253906	364.2850036621094	458.5140075683594	432.6759948730469	222.041015625	8.508996963500955	357.5773010253906	373.1983642578125	18.61854362487791	337.4972229003906	-0.891577422618866	-0.7355996966361998	-1.482058644294739	0.4305321276187897	0.6214778423309326	0.4420809745788575	0.1000000014901161	0.1000000014901161	-0.1000000014901161	-0.0004032029828522354	-1.385826826095581	-0.02922969125211247	0.3783166408538818	0.02488115243613717	0.4605603218078613	0.1000000014901161	0.1000000014901161	-0.1000000014901161	-1.074482679367065	-0.6348206996917723	-1.399179697036743	0.4275495111942291	0.3360941708087921	0.3935789465904236	0.1000000014901161	0.1000000014901161	-0.1000000014901161	-0.0772656723856926	-1.898845314979553	-2.506133794784546	0.2533650100231171	0.9913948178291321	0.3352552056312562	0.1000000014901161	0.1000000014901161	-0.1000000014901161	2.462945699691772	-2.237307548522949	0.2028716802597045	0.09414957463741302	0.5949568152427673	0.404781997203827	0.1000000014901161	0.1000000014901161	-0.1000000014901161	-1.882140040397644	-0.02876111492514595	-2.469287633895874	0.1246805638074875	0.0232581943273544	0.4664791822433472	0.1000000014901161	0.1000000014901161	-0.1000000014901161	2.464385032653809	2.318964004516602	0.3368203639984133	0.09393838047981262	0.3668052852153778	0.3883971869945526	0.1000000014901161	0.1000000014901161	-0.1000000014901161	
56	0.55	306.5344543457031	1027.452880859375	344.1345214843751	225.8673095703125	1030.245727539062	346.8150024414062	227.7727508544922	916.1295166015625	314.9759826660157	297.5639953613281	916.9434204101562	313.3961486816407	262.363525390625	1422.098999023438	500.885711669922	91.35903167724609	1439.961181640625	446.4226074218751	435.7504577636719	1464.704711914062	439.904510498047	253.7981109619141	1491.157836914062	368.4091186523439	91.08329010009766	647.3873291015625	397.8953552246094	101.3673095703125	545.1781616210938	394.0124816894532	89.7283935546875	592.367431640625	422.3577880859376	85.11573791503906	591.545166015625	459.5433959960939	434.3362426757812	668.8645629882812	421.4243164062501	433.6183166503906	632.3458862304688	482.6623229980469	423.35791015625	563.1976928710938	422.1822204589844	434.5177307128906	634.202392578125	440.6850280761719	93.05598449707031	363.5895080566406	377.1347961425781	97.09957122802734	419.1835327148438	396.2900390625	91.48171997070312	317.6874694824219	391.9800415039062	109.5691070556641	366.4836120605469	338.7437744140625	426.4196166992188	372.5484313964844	363.2250061035156	432.09912109375	350.4632873535156	404.9019470214844	424.0072631835938	285.2968444824219	412.6168823242188	424.70703125	394.6884155273438	429.865966796875	335.269287109375	28.15253829956053	320.4153442382812	377.7822265625	23.29100990295407	555.306640625	421.9329528808594	23.19620704650876	505.9536437988281	179.5997009277344	26.48424148559568	331.4505310058594	118.2020416259766	22.27482604980466	561.9775390625	76.24735260009766	21.00637054443356	505.966064453125	1498.27587890625	615.0947265625001	-1841.708374023438	1584.330078125	704.5056762695314	-1909.331176757812	1627.271484375	662.8223876953126	-1802.684204101562	1628.120971679688	658.2624511718751	-1821.206298828125	-339.1080017089844	1654.532104492188	913.1084594726564	-3557.312744140625	994.5353393554688	673.3855590820314	-3552.6650390625	971.5098266601562	669.4785156250001	nan	nan	nan	nan	nan	nan	140.0166320800781	903.9567260742188	452.8637084960939	375.7025451660156	892.2408447265625	456.9228515625001	145.3686676025391	461.1980895996094	417.146484375	244.1155853271484	466.7498474121094	431.9188232421876	364.2696838378906	458.5116271972656	432.6665344238281	264.3912658691406	461.4064331054688	436.6566772460938	145.3690032958984	461.197998046875	417.14599609375	364.2699890136719	458.5119934082031	432.6669921875	221.8809204101562	8.456365585327127	357.6562805175781	373.1963806152344	18.61687660217283	337.47998046875	-0.8914752006530762	-0.7351525425910949	-1.482107281684875	0.4305242300033569	0.6214724779129028	0.4420984089374543	0.1000000014901161	0.1000000014901161	-0.1000000014901161	-0.0004747273924294859	-1.38580048084259	-0.02924712002277382	0.3783281743526459	0.02487991936504838	0.4605585634708405	0.1000000014901161	0.1000000014901161	-0.1000000014901161	-1.074396014213562	-0.6347613334655761	-1.399222254753113	0.4275395274162292	0.3360901772975922	0.393577516078949	0.1000000014901161	0.1000000014901161	-0.1000000014901161	-0.0773015022277832	-1.898873567581177	-2.50631308555603	0.2533597946166992	0.9913950562477112	0.3352757692337037	0.1000000014901161	0.1000000014901161	-0.1000000014901161	2.463094711303711	-2.237463712692261	0.2030684649944303	0.09414392709732056	0.5949578881263733	0.4047862887382507	0.1000000014901161	0.1000000014901161	-0.1000000014901161	-1.882276892662048	-0.02860668860375866	-2.4692702293396	0.1246830374002457	0.02325514703989026	0.4664647579193115	0.1000000014901161	0.1000000014901161	-0.1000000014901161	2.464666604995728	2.317497491836548	0.3375010490417482	0.09390504658222198	0.3668256402015686	0.3884077966213226	0.1000000014901161	0.1000000014901161	-0.1000000014901161	
